# xmcd
#
# Track frame offsets:
#	150
#	13470
#	31548
#	44613
#	65158
#	78940
#	95628
#	110278
#	125203
#	143333
#	156488
#	175883
#	195768
#	208083
#
# Disc length: 2942 seconds
#
# Revision: 4
# Processed by: cddbd v1.5.2PL0 Copyright (c) Steve Scherf et al.
# Submitted via: EasyCDDAExtractor 15.3.0.1
#
DISCID=c10b7c0e
DTITLE=Alejandro Fernandez - Grandes Exitos A La Manera De Alejandro Fernandez
DYEAR=1994
DGENRE=Latin
TTITLE0=La Gloria Eres Tu
TTITLE1=Consentida
TTITLE2=Encadenados
TTITLE3=Si Dios Me Quita La Vida
TTITLE4=Conozco A Los Dos
TTITLE5=Rival
TTITLE6=No
TTITLE7=A Pesar De Todo
TTITLE8=Noche De Ronda
TTITLE9=La Enramada
TTITLE10=El Dia Que Me Quieras
TTITLE11=Piensa En Mi
TTITLE12=Mitad Tu, Mitad Yo
TTITLE13=Voy
EXTD=YEAR: 1994 ID3G: 86
EXTT0=
EXTT1=
EXTT2=
EXTT3=
EXTT4=
EXTT5=
EXTT6=
EXTT7=
EXTT8=
EXTT9=
EXTT10=
EXTT11=
EXTT12=
EXTT13=
PLAYORDER=
